<?xml version="1.0" standalone="no"?><svg xmlns="http://www.w3.org/2000/svg" xmlns:xlink="http://www.w3.org/1999/xlink" style="isolation:isolate" viewBox="340 400 320 200" width="320px" height="200px"><path d=" M 340 400 L 660 400 L 660 600 L 340 600 L 340 400 Z  M 390.04 560 L 390.04 560 Q 389.24 560 388.68 559.44 L 388.68 559.44 L 388.68 559.44 Q 388.12 558.88 388.12 558.08 L 388.12 558.08 L 388.12 520.4 L 388.12 520.4 Q 388.12 519.52 388.68 518.96 L 388.68 518.96 L 388.68 518.96 Q 389.24 518.4 390.04 518.4 L 390.04 518.4 L 396.6 518.4 L 396.6 518.4 Q 397.48 518.4 398.04 518.96 L 398.04 518.96 L 398.04 518.96 Q 398.6 519.52 398.6 520.4 L 398.6 520.4 L 398.6 523.68 L 398.6 523.68 Q 402.6 518.4 410.12 518.4 L 410.12 518.4 L 413.48 518.4 L 413.48 518.4 Q 414.36 518.4 414.88 518.92 L 414.88 518.92 L 414.88 518.92 Q 415.4 519.44 415.4 520.32 L 415.4 520.32 L 415.4 526.16 L 415.4 526.16 Q 415.4 526.96 414.88 527.52 L 414.88 527.52 L 414.88 527.52 Q 414.36 528.08 413.48 528.08 L 413.48 528.08 L 407.16 528.08 L 407.16 528.08 Q 403.4 528.08 401.24 530.24 L 401.24 530.24 L 401.24 530.24 Q 399.08 532.4 399.08 536.16 L 399.08 536.16 L 399.08 558.08 L 399.08 558.08 Q 399.08 558.88 398.52 559.44 L 398.52 559.44 L 398.52 559.44 Q 397.96 560 397.16 560 L 397.16 560 L 390.04 560 L 390.04 560 Z  M 430.28 535.52 L 447.8 535.52 L 447.8 535.36 L 447.8 535.36 Q 447.8 530.64 445.44 527.8 L 445.44 527.8 L 445.44 527.8 Q 443.08 524.96 439 524.96 L 439 524.96 L 439 524.96 Q 434.92 524.96 432.6 527.8 L 432.6 527.8 L 432.6 527.8 Q 430.28 530.64 430.28 535.36 L 430.28 535.36 L 430.28 535.52 L 430.28 535.52 Z  M 485.8 551.2 L 485.8 551.2 Q 490.28 551.2 492.52 548.32 L 492.52 548.32 L 492.52 548.32 Q 494.76 545.44 495 541.28 L 495 541.28 L 495 541.28 Q 495.08 540.64 495.08 538.72 L 495.08 538.72 L 495.08 538.72 Q 495.08 536.8 495 536.16 L 495 536.16 L 495 536.16 Q 494.76 532 492.52 529.12 L 492.52 529.12 L 492.52 529.12 Q 490.28 526.24 485.8 526.24 L 485.8 526.24 L 485.8 526.24 Q 477.16 526.24 476.68 536.8 L 476.68 536.8 L 476.6 538.72 L 476.6 538.72 Q 476.6 551.2 485.8 551.2 L 485.8 551.2 L 485.8 551.2 Z  M 518.52 560 L 518.52 560 Q 517.72 560 517.16 559.44 L 517.16 559.44 L 517.16 559.44 Q 516.6 558.88 516.6 558.08 L 516.6 558.08 L 516.6 520.4 L 516.6 520.4 Q 516.6 519.52 517.16 518.96 L 517.16 518.96 L 517.16 518.96 Q 517.72 518.4 518.52 518.4 L 518.52 518.4 L 525.08 518.4 L 525.08 518.4 Q 525.96 518.4 526.52 518.96 L 526.52 518.96 L 526.52 518.96 Q 527.08 519.52 527.08 520.4 L 527.08 520.4 L 527.08 523.68 L 527.08 523.68 Q 531.08 518.4 538.6 518.4 L 538.6 518.4 L 541.96 518.4 L 541.96 518.4 Q 542.84 518.4 543.36 518.92 L 543.36 518.92 L 543.36 518.92 Q 543.88 519.44 543.88 520.32 L 543.88 520.32 L 543.88 526.16 L 543.88 526.16 Q 543.88 526.96 543.36 527.52 L 543.36 527.52 L 543.36 527.52 Q 542.84 528.08 541.96 528.08 L 541.96 528.08 L 535.64 528.08 L 535.64 528.08 Q 531.88 528.08 529.72 530.24 L 529.72 530.24 L 529.72 530.24 Q 527.56 532.4 527.56 536.16 L 527.56 536.16 L 527.56 558.08 L 527.56 558.08 Q 527.56 558.88 527 559.44 L 527 559.44 L 527 559.44 Q 526.44 560 525.64 560 L 525.64 560 L 518.52 560 L 518.52 560 Z  M 551.72 511.6 L 551.72 511.6 Q 550.92 511.6 550.36 511.04 L 550.36 511.04 L 550.36 511.04 Q 549.8 510.48 549.8 509.68 L 549.8 509.68 L 549.8 503.84 L 549.8 503.84 Q 549.8 502.96 550.36 502.4 L 550.36 502.4 L 550.36 502.4 Q 550.92 501.84 551.72 501.84 L 551.72 501.84 L 559.08 501.84 L 559.08 501.84 Q 559.96 501.84 560.52 502.4 L 560.52 502.4 L 560.52 502.4 Q 561.08 502.96 561.08 503.84 L 561.08 503.84 L 561.08 509.68 L 561.08 509.68 Q 561.08 510.48 560.48 511.04 L 560.48 511.04 L 560.48 511.04 Q 559.88 511.6 559.08 511.6 L 559.08 511.6 L 551.72 511.6 L 551.72 511.6 Z  M 552.04 560 L 552.04 560 Q 551.24 560 550.68 559.44 L 550.68 559.44 L 550.68 559.44 Q 550.12 558.88 550.12 558.08 L 550.12 558.08 L 550.12 520.32 L 550.12 520.32 Q 550.12 519.44 550.68 518.92 L 550.68 518.92 L 550.68 518.92 Q 551.24 518.4 552.04 518.4 L 552.04 518.4 L 558.84 518.4 L 558.84 518.4 Q 559.64 518.4 560.2 518.96 L 560.2 518.96 L 560.2 518.96 Q 560.76 519.52 560.76 520.32 L 560.76 520.32 L 560.76 558.08 L 560.76 558.08 Q 560.76 558.88 560.2 559.44 L 560.2 559.44 L 560.2 559.44 Q 559.64 560 558.84 560 L 558.84 560 L 552.04 560 L 552.04 560 Z  M 589.8 552.16 L 589.8 552.16 Q 594.36 552.16 596.56 549.24 L 596.56 549.24 L 596.56 549.24 Q 598.76 546.32 599 542 L 599 542 L 599 542 Q 599.08 541.04 599.08 538.96 L 599.08 538.96 L 599.08 538.96 Q 599.08 536.8 599 535.84 L 599 535.84 L 599 535.84 Q 598.84 531.84 596.52 529.04 L 596.52 529.04 L 596.52 529.04 Q 594.2 526.24 589.8 526.24 L 589.8 526.24 L 589.8 526.24 Q 581.24 526.24 580.68 536.8 L 580.68 536.8 L 580.6 539.2 L 580.68 541.6 L 580.68 541.6 Q 581.24 552.16 589.8 552.16 L 589.8 552.16 L 589.8 552.16 Z  M 439.08 560.8 L 439.08 560.8 Q 430.12 560.8 424.88 555.68 L 424.88 555.68 L 424.88 555.68 Q 419.64 550.56 419.32 541.12 L 419.32 541.12 L 419.24 539.12 L 419.24 539.12 Q 419.24 529.12 424.48 523.36 L 424.48 523.36 L 424.48 523.36 Q 429.72 517.6 439 517.6 L 439 517.6 L 439 517.6 Q 448.52 517.6 453.68 523.36 L 453.68 523.36 L 453.68 523.36 Q 458.84 529.12 458.84 538.72 L 458.84 538.72 L 458.84 540.4 L 458.84 540.4 Q 458.84 541.2 458.28 541.76 L 458.28 541.76 L 458.28 541.76 Q 457.72 542.32 456.84 542.32 L 456.84 542.32 L 430.28 542.32 L 430.28 542.96 L 430.28 542.96 Q 430.44 547.44 432.72 550.36 L 432.72 550.36 L 432.72 550.36 Q 435 553.28 439 553.28 L 439 553.28 L 439 553.28 Q 443.56 553.28 446.44 549.6 L 446.44 549.6 L 446.44 549.6 Q 447.16 548.72 447.56 548.52 L 447.56 548.52 L 447.56 548.52 Q 447.96 548.32 448.92 548.32 L 448.92 548.32 L 455.96 548.32 L 455.96 548.32 Q 456.68 548.32 457.2 548.72 L 457.2 548.72 L 457.2 548.72 Q 457.72 549.12 457.72 549.84 L 457.72 549.84 L 457.72 549.84 Q 457.72 551.76 455.44 554.36 L 455.44 554.36 L 455.44 554.36 Q 453.16 556.96 448.92 558.88 L 448.92 558.88 L 448.92 558.88 Q 444.68 560.8 439.08 560.8 L 439.08 560.8 L 439.08 560.8 Z  M 486.12 577.6 L 486.12 577.6 Q 479 577.6 474.6 575.24 L 474.6 575.24 L 474.6 575.24 Q 470.2 572.88 468.36 569.84 L 468.36 569.84 L 468.36 569.84 Q 466.52 566.8 466.52 564.64 L 466.52 564.64 L 466.52 564.64 Q 466.52 563.84 467.08 563.32 L 467.08 563.32 L 467.08 563.32 Q 467.64 562.8 468.44 562.8 L 468.44 562.8 L 475.56 562.8 L 475.56 562.8 Q 476.28 562.8 476.8 563.16 L 476.8 563.16 L 476.8 563.16 Q 477.32 563.52 477.64 564.48 L 477.64 564.48 L 477.64 564.48 Q 478.52 566.56 480.28 568.04 L 480.28 568.04 L 480.28 568.04 Q 482.04 569.52 485.72 569.52 L 485.72 569.52 L 485.72 569.52 Q 490.52 569.52 492.76 567.4 L 492.76 567.4 L 492.76 567.4 Q 495 565.28 495 560 L 495 560 L 495 554.56 L 495 554.56 Q 490.68 559.68 482.76 559.68 L 482.76 559.68 L 482.76 559.68 Q 474.44 559.68 470.24 554.64 L 470.24 554.64 L 470.24 554.64 Q 466.04 549.6 465.72 540.88 L 465.72 540.88 L 465.64 538.72 L 465.72 536.56 L 465.72 536.56 Q 466.04 528 470.28 522.8 L 470.28 522.8 L 470.28 522.8 Q 474.52 517.6 482.76 517.6 L 482.76 517.6 L 482.76 517.6 Q 487 517.6 490.2 519.2 L 490.2 519.2 L 490.2 519.2 Q 493.4 520.8 495.48 523.52 L 495.48 523.52 L 495.48 520.4 L 495.48 520.4 Q 495.48 519.52 496.08 518.96 L 496.08 518.96 L 496.08 518.96 Q 496.68 518.4 497.48 518.4 L 497.48 518.4 L 504.04 518.4 L 504.04 518.4 Q 504.84 518.4 505.4 518.96 L 505.4 518.96 L 505.4 518.96 Q 505.96 519.52 505.96 520.4 L 505.96 520.4 L 506.04 558.96 L 506.04 558.96 Q 506.04 567.84 501.08 572.72 L 501.08 572.72 L 501.08 572.72 Q 496.12 577.6 486.12 577.6 L 486.12 577.6 L 486.12 577.6 Z  M 586.76 560.8 L 586.76 560.8 Q 578.68 560.8 574.36 555.64 L 574.36 555.64 L 574.36 555.64 Q 570.04 550.48 569.64 541.84 L 569.64 541.84 L 569.56 539.2 L 569.64 536.56 L 569.64 536.56 Q 569.96 528.08 574.32 522.84 L 574.32 522.84 L 574.32 522.84 Q 578.68 517.6 586.76 517.6 L 586.76 517.6 L 586.76 517.6 Q 594.44 517.6 599 522.88 L 599 522.88 L 599 505.12 L 599 505.12 Q 599 504.24 599.56 503.72 L 599.56 503.72 L 599.56 503.72 Q 600.12 503.2 600.92 503.2 L 600.92 503.2 L 607.88 503.2 L 607.88 503.2 Q 608.76 503.2 609.28 503.72 L 609.28 503.72 L 609.28 503.72 Q 609.8 504.24 609.8 505.12 L 609.8 505.12 L 609.8 558.08 L 609.8 558.08 Q 609.8 558.88 609.28 559.44 L 609.28 559.44 L 609.28 559.44 Q 608.76 560 607.88 560 L 607.88 560 L 601.4 560 L 601.4 560 Q 600.6 560 600.04 559.44 L 600.04 559.44 L 600.04 559.44 Q 599.48 558.88 599.48 558.08 L 599.48 558.08 L 599.48 555.12 L 599.48 555.12 Q 595.08 560.8 586.76 560.8 L 586.76 560.8 L 586.76 560.8 Z " fill-rule="evenodd" id="Compound Shape" fill="rgb(255,255,255)"/></svg>